# xmcd CD database file
#
# Track frame offsets:
#	187
#	11962
#	24750
#	36587
#	48987
#	61612
#	74862
#	87175
#	100125
#	112287
#	125450
#	139312
#	151150
#	164462
#	177962
#	190612
#	203937
#	216837
#	228412
#	240337
#	251412
#	263562
#
# Disc length: 3668 seconds
#
# Revision: 0
# Processed by: cddbd v1.4PL0 Copyright (c) Steve Scherf et al.
# Submitted via: CDex 1.40Release
#
DISCID=340e5216
DTITLE=HANK WILLIAMS - THE IMMORTAL HANK WILLIAMS Disc2
DYEAR=1988
DGENRE=Country
TTITLE0=LOST ON THE RIVER
TTITLE1=THERE'LL BE NO TEARDROPS TONIGHT
TTITLE2=I HEARD MY MOTHER PRAYING FOR ME
TTITLE3=LOVESICK BLUES
TTITLE4=DEAR BROTHER
TTITLE5=JESUS REMEMBERED ME
TTITLE6=LOST HIGHWAY
TTITLE7=MAY YOU NEVER BE ALONE
TTITLE8=HONKY TONK BLUES
TTITLE9=MIND YOUR OWN BUSINESS
TTITLE10=YOU'RE GONNA CHANGE(OR I'M GONNA LEAVE)
TTITLE11=MY SON CALLS ANOTHER MAN DADDY
TTITLE12=WEDDING BELLS
TTITLE13=I'VE JUST TOLD MAMA GOODBYE
TTITLE14=I'M SO LONESOME I COULD CRY
TTITLE15=A HOUSE WITHOUT LOVE
TTITLE16=I JUST DON'T LIKE THIS KIND OF LIVIN'
TTITLE17=MY BUCKET'S GOT A HOLE IN IT
TTITLE18=LONG GONE LONESOME BLUES
TTITLE19=WHY DON'T YOU LOVE ME
TTITLE20=WHY SHOULD WE TRY ANYMORE
TTITLE21=MY SON CALLS ANOTHER MAN DADDY
EXTD=YEAR: 1988 ID3G: 2
EXTT0=
EXTT1=
EXTT2=
EXTT3=
EXTT4=
EXTT5=
EXTT6=
EXTT7=
EXTT8=
EXTT9=
EXTT10=
EXTT11=
EXTT12=
EXTT13=
EXTT14=
EXTT15=
EXTT16=
EXTT17=
EXTT18=
EXTT19=
EXTT20=
EXTT21=
PLAYORDER=
